<svg width="90" height="22" viewBox="0 0 90 22" fill="none" xmlns="http://www.w3.org/2000/svg">
<path d="M0.13087 12.19C0.779517 8.56898 4.24945 6.15603 7.88318 6.7967C8.22956 6.85865 8.46001 7.18767 8.39571 7.5317C8.3361 7.87715 7.99958 8.09493 7.66071 8.04424C4.72772 7.51434 1.90362 9.47858 1.37606 12.4163C1.0447 14.2665 1.48026 16.2016 2.57197 17.734C3.24033 18.6671 4.12131 19.3697 5.11352 19.8475C2.85875 17.9992 2.49265 14.6701 4.31421 12.3806C5.82929 10.4797 8.60645 10.1624 10.5045 11.6789C11.2667 12.2863 11.7492 13.1574 11.8581 14.1228C11.967 15.0906 11.6925 16.0462 11.0837 16.8085C10.5763 17.4468 9.85634 17.8509 9.04154 17.942C8.23003 18.0335 7.43541 17.8063 6.79944 17.2961C6.64831 17.1774 6.58401 17.0094 6.5765 16.8282C6.46761 16.6329 6.38594 16.4203 6.38594 16.1772C6.38594 15.4323 6.98718 14.8231 7.74002 14.8231C8.48489 14.8231 9.08895 15.43 9.08895 16.1772C9.08895 16.3457 9.04905 16.5015 8.99226 16.6526C9.42547 16.5808 9.8141 16.3706 10.0887 16.019C10.4876 15.5239 10.6679 14.9024 10.5937 14.2688C10.5172 13.6347 10.2102 13.0682 9.70755 12.6725C8.35347 11.5921 6.37843 11.8211 5.2947 13.1677C3.89368 14.9325 4.18843 17.5041 5.95038 18.9098C8.20985 20.7093 10.8584 20.3896 13.4028 18.0039C13.5117 17.9049 13.6525 17.8725 13.7862 17.8598C15.0089 16.6747 16.2663 15.1324 17.7391 13.2808C18.4 12.4515 19.036 11.5559 19.6747 10.6646C19.4518 10.7041 19.234 10.7524 19.0087 10.7524C18.3305 10.7524 17.6476 10.568 16.9816 10.1934C15.291 9.24297 14.6874 7.08582 15.6378 5.38817C16.4301 3.97354 18.2343 3.46335 19.655 4.26219C20.2366 4.58605 20.6529 5.1197 20.8308 5.76084C21.0091 6.40197 20.9251 7.07362 20.5984 7.65186C20.0315 8.6652 18.737 9.028 17.7199 8.45774C17.4749 8.32022 17.4026 8.0494 17.4552 7.79079C17.4402 7.74479 17.3984 7.72508 17.3881 7.67955C17.3261 7.22287 17.6354 6.80468 18.0911 6.73662C18.5314 6.67091 18.935 6.97552 19.0144 7.41108C19.2096 7.34819 19.3856 7.22287 19.494 7.03137C19.6527 6.74788 19.6973 6.41746 19.6104 6.10299C19.5217 5.78853 19.3185 5.5271 19.0336 5.36799C18.2169 4.91741 17.1919 5.20324 16.7418 6.00771C16.1325 7.09661 16.5188 8.47792 17.603 9.08667C19.4222 10.1132 20.8303 8.93977 21.5808 8.03251C24.709 3.80645 28.2855 -5.39201e-06 34.5302 -4.84608e-06C34.5453 -4.84476e-06 34.5626 -4.84324e-06 34.5795 -4.84177e-06C37.666 0.00985185 40.4577 1.24378 42.4539 3.47509C43.6963 4.86344 44.5172 6.58878 44.9762 8.45258C45.4291 6.58596 46.2533 4.8639 47.4985 3.47509C49.4923 1.24378 52.2878 0.00985313 55.3728 -3.02396e-06C55.3874 -3.02269e-06 55.4024 -3.02137e-06 55.4212 -3.01973e-06C61.6608 -2.47425e-06 65.2377 3.80176 68.3673 8.02688C69.1174 8.93414 70.5315 10.1122 72.3507 9.08621C73.4359 8.47511 73.8212 7.0938 73.2134 6.00725C72.7591 5.19762 71.7307 4.90943 70.9216 5.36471C70.6381 5.52429 70.4353 5.78525 70.3461 6.09972C70.2584 6.41418 70.2978 6.7432 70.4574 7.03044C70.5677 7.22194 70.7446 7.34444 70.9399 7.4078C71.0229 6.97224 71.4238 6.67045 71.8645 6.73569C72.3212 6.80374 72.6305 7.22194 72.5662 7.67862C72.5587 7.72696 72.5131 7.74668 72.5005 7.78986C72.5488 8.04847 72.4779 8.31929 72.2343 8.45681C71.2182 9.02707 69.9228 8.66426 69.3558 7.65092C69.0277 7.0708 68.9475 6.39869 69.1268 5.75755C69.3051 5.11923 69.7233 4.58558 70.3001 4.25891C71.7176 3.46617 73.5213 3.97073 74.3187 5.3877C75.2692 7.08301 74.6651 9.24016 72.9722 10.1906C72.3052 10.5656 71.6209 10.7501 70.945 10.7501C70.7207 10.7501 70.5006 10.6994 70.2804 10.6618C70.9187 11.5564 71.5524 12.451 72.2146 13.2804C73.6851 15.1291 74.9435 16.6738 76.1713 17.8594C76.3074 17.8716 76.4421 17.9044 76.5515 18.0035C79.0982 20.3868 81.7467 20.706 84.0053 18.9065C85.7663 17.5036 86.061 14.9315 84.6586 13.1668C83.5772 11.8117 81.597 11.5865 80.2467 12.6693C79.7468 13.0626 79.4324 13.6319 79.3619 14.2632C79.2915 14.8945 79.4685 15.5182 79.8693 16.0134C80.143 16.3621 80.533 16.5724 80.9634 16.647C80.9075 16.4964 80.8681 16.3405 80.8681 16.172C80.8681 15.4267 81.4736 14.818 82.218 14.818C82.9656 14.818 83.572 15.4244 83.572 16.172C83.572 16.4119 83.4904 16.6273 83.3815 16.823C83.374 17.0009 83.3087 17.1718 83.1585 17.2905C82.5202 17.8007 81.7219 18.0283 80.9164 17.934C80.1068 17.8453 79.3817 17.4416 78.878 16.8057C78.2693 16.0434 77.9933 15.0906 78.1046 14.1177C78.2134 13.1475 78.6945 12.2783 79.4582 11.6756C81.3567 10.1573 84.1339 10.4741 85.6522 12.3773C87.47 14.6621 87.1049 17.9936 84.8515 19.8424C85.8451 19.3622 86.7252 18.6615 87.3935 17.7284C88.4866 16.1964 88.9217 14.2632 88.5876 12.4106C88.0605 9.47014 85.2523 7.50871 82.3043 8.03861C81.964 8.0893 81.6299 7.87199 81.5693 7.52608C81.5088 7.18251 81.7364 6.85303 82.0814 6.79107C85.7024 6.14759 89.1827 8.561 89.8337 12.1844C90.227 14.3697 89.7126 16.6569 88.4228 18.4639C87.1631 20.2263 85.3105 21.372 83.2041 21.6963C77.9422 22.4909 74.8172 18.5953 71.221 14.0632C71.2013 14.0384 71.1825 14.0088 71.1628 13.9839L71.1605 13.9839C70.3846 13.125 68.8029 11.8676 66.9701 13.0879C65.9342 13.776 65.6498 15.1822 66.3313 16.2115C66.8438 16.984 67.8905 17.1915 68.663 16.6789C69.2234 16.3053 69.376 15.5506 69.0057 14.9935C68.8658 14.786 68.6504 14.6767 68.4204 14.6419C68.3434 15.0583 67.9848 15.3648 67.5591 15.3305C67.0996 15.2854 66.7622 14.8921 66.803 14.4345C66.8082 14.3674 66.8687 14.3303 66.8922 14.2683C66.88 14.0506 66.9353 13.8351 67.1297 13.7065C68.0984 13.0579 69.4168 13.3231 70.0626 14.2881C70.8197 15.4267 70.5081 16.9737 69.3685 17.7312C68.8663 18.0626 68.2993 18.2212 67.7384 18.2212C66.7833 18.2212 65.845 17.7584 65.2771 16.9066C64.2079 15.2906 64.651 13.1029 66.2684 12.0258C67.2188 11.3945 68.2401 11.1842 69.2436 11.3762C69.1099 11.1894 68.9723 11.0157 68.839 10.8294C68.3293 10.1117 67.8093 9.39974 67.2845 8.69195C67.27 8.67224 67.2503 8.65722 67.2339 8.6361C67.2315 8.63141 67.2339 8.6239 67.2292 8.61873C64.3145 4.71559 60.9844 1.2588 55.4193 1.2588C55.4057 1.2588 55.3907 1.2588 55.3785 1.2588C52.6557 1.26631 50.1959 2.35052 48.4447 4.3096C46.4819 6.50758 45.5577 9.61235 45.9102 12.8302C46.165 15.1817 47.3211 17.2952 49.1661 18.7751C50.875 20.1465 52.9777 20.7923 55.1475 20.6858C56.4528 20.4582 57.5028 19.8616 58.1744 18.914C58.985 17.7702 59.2511 16.1664 58.9019 14.5133C58.6757 13.4488 58.0491 12.5369 57.1348 11.9389C56.22 11.3461 55.132 11.1434 54.0633 11.3687C53.242 11.5433 52.5375 12.0258 52.0808 12.7312C51.6255 13.4338 51.4706 14.2702 51.6452 15.0972C51.7748 15.7158 52.1362 16.2457 52.6661 16.5926C53.1997 16.9437 53.8357 17.0629 54.4693 16.9263C54.8899 16.8399 55.2438 16.5874 55.5028 16.2462C54.8692 16.127 54.39 15.5924 54.398 14.9245C54.4116 14.1792 55.0217 13.5831 55.7718 13.5929C56.335 13.5981 56.8137 13.9562 57.0095 14.4439C57.0292 14.4889 57.0752 14.5058 57.085 14.5528C57.1085 14.657 57.0803 14.7607 57.0902 14.8696C57.0902 14.9043 57.109 14.9264 57.109 14.9634C57.109 14.9911 57.0954 15.0109 57.093 15.0306C57.1263 15.6642 57.0146 16.2955 56.6626 16.8399C56.2195 17.5252 55.5352 17.9931 54.7345 18.1635C53.7864 18.3644 52.798 18.186 51.9761 17.6486C51.1632 17.1164 50.6047 16.2997 50.408 15.3516C50.1621 14.2008 50.3794 13.0227 51.0233 12.0352C51.6645 11.0486 52.6534 10.3694 53.8066 10.1272C55.1978 9.83013 56.633 10.0939 57.8313 10.8744C59.0305 11.6517 59.8523 12.8495 60.148 14.2453C60.4982 15.8989 60.3001 17.5078 59.6566 18.8314C59.8993 18.6066 60.1457 18.3813 60.3559 18.1166C61.5195 16.6663 62.0513 14.8494 61.8485 13.003C61.5242 10.0202 58.8324 7.86589 55.8473 8.18036C55.4949 8.20993 55.1851 7.96727 55.1494 7.61713C55.1123 7.26934 55.3634 6.95628 55.7122 6.92061C59.3802 6.53856 62.7079 9.19134 63.1106 12.8645C63.3546 15.0526 62.7281 17.1962 61.3519 18.9112C59.9758 20.6239 58.0143 21.7005 55.8262 21.9385C55.6061 21.9606 55.3883 21.9634 55.1705 21.9728C55.1344 21.9779 55.1048 21.9901 55.0668 21.9953C55.0382 21.9976 55.0138 22 54.9851 22C54.9701 22 54.9603 21.9883 54.9457 21.9854C54.8669 21.9854 54.7885 21.9976 54.7068 21.9976C52.4112 21.9976 50.201 21.2232 48.3827 19.7649C46.6973 18.4109 45.545 16.5921 44.9898 14.5476C44.4317 16.5898 43.2818 18.409 41.5973 19.7649C39.7804 21.2251 37.5702 21.9976 35.2732 21.9976C35.1967 21.9976 35.1174 21.9878 35.0357 21.9854C35.0184 21.9854 35.0081 22 34.9935 22C34.9639 22 34.9391 22 34.9118 21.9953C34.8771 21.9901 34.8471 21.9779 34.8076 21.9728C34.5899 21.9629 34.3716 21.9606 34.1538 21.9385C31.9709 21.6954 30.0057 20.6215 28.6272 18.9112C27.251 17.1962 26.6226 15.0526 26.8648 12.8645C27.2637 9.19134 30.5774 6.51743 34.2604 6.92061C34.6096 6.95909 34.8569 7.26981 34.825 7.61713C34.7851 7.96727 34.4584 8.21274 34.1271 8.18036C31.1467 7.86354 28.454 10.023 28.1273 13.003C27.9241 14.8494 28.454 16.6663 29.6199 18.1166C29.8301 18.3813 30.078 18.6042 30.3178 18.8314C29.6771 17.5078 29.4763 15.8989 29.8278 14.25C30.1249 12.8542 30.9439 11.6536 32.1445 10.8763C33.3428 10.0953 34.7757 9.83154 36.1692 10.1286C37.3224 10.3736 38.3123 11.0509 38.9539 12.037C39.5946 13.0222 39.8128 14.2003 39.5678 15.3511C39.3721 16.3016 38.8108 17.1211 37.9983 17.6528C37.1816 18.1827 36.2016 18.3681 35.2437 18.1654C34.4444 17.9945 33.7586 17.5242 33.3132 16.839C32.9593 16.2969 32.8481 15.6656 32.8828 15.032C32.8828 15.0094 32.8655 14.9869 32.8655 14.9625C32.8655 14.9306 32.8828 14.9057 32.8852 14.8686C32.895 14.7644 32.8655 14.6612 32.8903 14.5518C32.9002 14.5044 32.9448 14.4899 32.9645 14.4476C33.1626 13.9576 33.6399 13.6009 34.2022 13.5967C34.9522 13.5817 35.5633 14.1806 35.576 14.9254C35.5835 15.5914 35.1005 16.126 34.4697 16.2495C34.7297 16.5888 35.0813 16.8338 35.5018 16.9277C36.1256 17.0662 36.7663 16.9422 37.3013 16.5935C37.8307 16.2448 38.1997 15.7149 38.3259 15.0935C38.4991 14.2721 38.3456 13.4352 37.8904 12.7303C37.4323 12.0234 36.7292 11.5419 35.9073 11.3677C34.8386 11.1378 33.7464 11.3414 32.8359 11.938C31.9253 12.5284 31.2964 13.4451 31.0683 14.5124C30.7196 16.1655 30.9843 17.7692 31.7963 18.9131C32.4717 19.863 33.524 20.4572 34.8283 20.6802C36.9915 20.7942 39.1027 20.1456 40.8055 18.7741C42.6533 17.2943 43.8089 15.1808 44.0619 12.8293C44.4144 9.61141 43.4897 6.50617 41.526 4.31101C39.7786 2.35192 37.3135 1.26772 34.5931 1.26021C34.5809 1.26021 34.5659 1.26021 34.5509 1.26021C28.9891 1.26021 25.6581 4.71934 22.7424 8.62014C22.7396 8.6253 22.7424 8.63234 22.7373 8.6375C22.7199 8.65816 22.7002 8.67317 22.6856 8.69054C22.1581 9.39832 21.6409 10.1122 21.1311 10.828C20.9979 11.0143 20.8617 11.188 20.728 11.3748C21.7305 11.1828 22.7551 11.3935 23.7032 12.0272C25.322 13.1015 25.7627 15.2943 24.6954 16.908C24.1289 17.757 23.1907 18.2198 22.2355 18.2198C21.6714 18.2198 21.1067 18.0612 20.6022 17.7298C19.4635 16.9671 19.1514 15.4253 19.9089 14.2866C20.5599 13.3188 21.8694 13.0565 22.8419 13.7051C23.0348 13.8337 23.0945 14.0491 23.0794 14.2669C23.102 14.3289 23.1611 14.3683 23.1686 14.4331C23.208 14.893 22.8715 15.2892 22.4111 15.3291C21.9854 15.3633 21.6263 15.0568 21.5522 14.6405C21.3222 14.6753 21.1044 14.7818 20.9659 14.9897C20.5947 15.5469 20.7505 16.3039 21.3095 16.6752C22.0821 17.1854 23.1287 16.9774 23.6413 16.21C24.327 15.1756 24.0397 13.7722 23.0053 13.0865C21.1687 11.8615 19.5898 13.1236 18.8149 13.9825L18.8125 13.9825C18.7924 14.0121 18.7755 14.0369 18.7553 14.0618C15.1619 18.5911 12.0477 22.4895 6.77128 21.6926C4.66482 21.3706 2.81322 20.2249 1.55348 18.4625C0.252428 16.6625 -0.267142 14.3777 0.13087 12.19Z" fill="#DB4A4D"/>
</svg>
