<svg width="268" height="74" viewBox="0 0 268 74" fill="none" xmlns="http://www.w3.org/2000/svg">
<path d="M36.9984 74C31.8329 74 27.0836 70.9667 24.8518 66.3478C23.4084 66.8581 21.9085 67.1148 20.3781 67.1148C16.7742 67.1148 13.3867 65.7127 10.8389 63.162C7.18421 59.5067 5.97306 53.9993 7.66502 49.1524C3.03989 46.923 0.00112735 42.1697 0 36.9984C0 31.8291 3.03782 27.0776 7.66408 24.8476C5.96987 19.9974 7.1812 14.4889 10.8366 10.8357C13.3846 8.28885 16.773 6.88501 20.376 6.88501C21.9107 6.88501 23.4116 7.14225 24.8518 7.65316C27.0838 3.03316 31.832 0 36.9984 0C42.1645 0 46.9132 3.03203 49.1458 7.6511C50.5874 7.14018 52.0872 6.88276 53.6215 6.88276C57.227 6.88276 60.6156 8.28659 63.1639 10.8372C66.8179 14.4919 68.0286 19.9996 66.3354 24.8485C70.9616 27.0795 74 31.8301 74 36.9993C73.9977 42.1684 70.9575 46.9207 66.3333 49.1502C68.0275 53.9979 66.8167 59.5065 63.1594 63.1641C60.6112 65.7125 57.2224 67.1157 53.6202 67.1157C52.0847 67.1157 50.5829 66.8579 49.1456 66.3476C46.9112 70.9657 42.1633 74 36.9984 74ZM26.0475 63.4531L26.4633 64.5352C28.1313 68.8804 32.3643 71.7994 36.9984 71.7994C41.6316 71.7994 45.8667 68.8804 47.5342 64.533L47.9511 63.4488L49.0124 63.9247C50.4756 64.5822 52.0259 64.9144 53.6204 64.9144C56.636 64.9144 59.4704 63.74 61.6039 61.6071C64.8828 58.328 65.8111 53.2662 63.9116 49.0115L63.4379 47.9521L64.522 47.5363C68.8709 45.8677 71.7955 41.6333 71.7996 36.9971C71.7996 32.363 68.8753 28.1282 64.5262 26.46L63.442 26.0453L63.9157 24.9859C65.8121 20.7311 64.8848 15.6705 61.608 12.3923C59.4766 10.2588 56.6392 9.08312 53.6213 9.08312C52.028 9.08312 50.4777 9.41665 49.0101 10.0732L47.9496 10.5486L47.5327 9.464C45.8642 5.11908 41.6312 2.20036 36.998 2.20036C32.3637 2.20036 28.1309 5.12021 26.463 9.46625L26.0472 10.5508L24.9867 10.0754C23.5202 9.4189 21.9688 9.08631 20.3755 9.08631C17.3591 9.08631 14.524 10.2607 12.3918 12.3925C9.11329 15.6694 8.18623 20.7302 10.0836 24.986L10.5557 26.0454L9.47216 26.4602C5.1221 28.1282 2.19983 32.3632 2.19983 36.9984C2.20077 41.6357 5.12417 45.8722 9.47328 47.5387L10.5569 47.9534L10.0847 49.014C8.18849 53.2677 9.11667 58.3282 12.3941 61.6075C14.5262 63.7404 17.3615 64.9148 20.3777 64.9148C21.9667 64.9148 23.5176 64.5807 24.9878 63.9274L26.0475 63.4531ZM36.9995 68.1389C33.0578 68.1389 29.7293 65.0445 29.4226 61.0906L29.383 60.5855L35.7991 54.1733C35.8883 54.0851 35.9688 53.9906 36.0511 53.8959L36.9939 52.8344L37.9645 53.9121C38.0425 54.0002 38.1209 54.0904 38.2041 54.1733L44.6164 60.5855L44.5777 61.0906C44.2724 65.0422 40.9441 68.1389 36.9995 68.1389ZM31.6754 61.4064C32.11 63.9853 34.3613 65.9385 36.9984 65.9385C39.6377 65.9385 41.8883 63.983 42.3236 61.4044L37.0007 56.0827L31.6754 61.4064ZM53.6613 61.1744C51.8082 61.1744 50.0407 60.5427 48.6805 59.3931L48.2907 59.062V49.9937C48.2907 49.8778 48.282 49.7616 48.2756 49.6455L48.1982 48.1928L49.6207 48.2736C49.7453 48.2821 49.8699 48.2918 49.9967 48.2918H59.0621L59.392 48.6776C61.9695 51.6914 61.804 56.2342 59.0172 59.0191C57.6268 60.4072 55.7229 61.1744 53.6613 61.1744ZM50.4909 58.0112C51.3935 58.6343 52.5 58.9738 53.6613 58.9738C55.1149 58.9738 56.4989 58.4237 57.4614 57.4633C59.3266 55.5991 59.535 52.624 58.0202 50.4922H50.4911V58.0112H50.4909ZM20.3409 61.1744C18.2781 61.1744 16.3772 60.4094 14.9862 59.0189C12.2009 56.2297 12.0344 51.6869 14.6091 48.6765L14.9379 48.2917H24.0087C24.1254 48.2917 24.2397 48.2819 24.3552 48.2746L25.805 48.1994L25.727 49.6348C25.7195 49.753 25.7091 49.8734 25.7091 49.9937V59.062L25.3198 59.3931C23.9595 60.5404 22.1915 61.1744 20.3409 61.1744ZM15.9801 50.4924C14.4674 52.6219 14.6786 55.5959 16.5421 57.4635C17.5026 58.4218 18.8864 58.974 20.34 58.974C21.4981 58.974 22.6063 58.6335 23.5082 58.0114V50.4924H15.9801ZM29.3678 55.4251V49.9939C29.3687 48.8311 29.6502 47.686 30.2037 46.5857L30.3256 46.344L30.547 46.186C31.5075 45.4985 32.3556 44.6634 33.0685 43.704L35.6802 40.1862L35.0398 44.5204C34.8653 45.7012 34.875 46.8929 35.0682 48.0596L35.1133 48.3272L35.0289 48.584C34.6438 49.7519 34.032 50.7607 33.2111 51.5839L29.3678 55.4251ZM31.5682 49.9937V50.1151L31.6537 50.0301C32.1732 49.5091 32.5771 48.873 32.8531 48.1359C32.8101 47.8405 32.778 47.5449 32.7549 47.2473C32.5298 47.4418 32.2977 47.6276 32.0587 47.8061C31.7341 48.5239 31.5693 49.2588 31.5682 49.9937ZM44.6302 55.4239L40.7925 51.5862C39.9718 50.763 39.3604 49.7541 38.9758 48.5863L38.8897 48.3294L38.9348 48.0618C39.1281 46.894 39.1379 45.7014 38.9628 44.5174L38.3236 40.1776L40.9353 43.7019C41.6423 44.657 42.4897 45.4917 43.4536 46.1837L43.6727 46.3429L43.7931 46.5836C44.3474 47.6827 44.63 48.8302 44.63 49.9959L44.6302 55.4239ZM41.1482 48.1361C41.4264 48.8732 41.8293 49.5102 42.3494 50.0315L42.4301 50.1121V49.9939C42.4301 49.2567 42.2657 48.5196 41.9403 47.802C41.7028 47.6248 41.4719 47.4399 41.2474 47.2477C41.2233 47.544 41.1912 47.8405 41.1482 48.1361ZM55.4211 44.6322H49.9956C48.8299 44.6322 47.6825 44.3507 46.5824 43.7942L46.3385 43.6739L46.1805 43.4524C45.4994 42.4984 44.67 41.6539 43.7159 40.9427L40.2329 38.3468L44.5302 38.9722C45.914 39.1741 46.8294 39.1463 48.0768 38.9398L48.3465 38.8947L48.6044 38.9808C49.7635 39.3677 50.7639 39.9769 51.5825 40.7943L55.4211 44.6322ZM47.8029 41.9397C48.5205 42.2652 49.2576 42.4296 49.9956 42.4296H50.1106L50.0288 42.3479C49.5108 41.8322 48.8814 41.4303 48.1529 41.1532C47.848 41.1983 47.5492 41.2326 47.2603 41.2586C47.4482 41.4799 47.6287 41.7054 47.8029 41.9397ZM24.0057 44.63H18.5732L22.4124 40.7899C23.2301 39.9756 24.2303 39.3652 25.3864 38.9774L25.6479 38.8904L25.9198 38.9355C27.1424 39.143 28.0969 39.1719 29.4615 38.9688L33.7751 38.3306L30.2813 40.9395C29.3262 41.6519 28.4958 42.4974 27.8113 43.4525L27.654 43.6718L27.4128 43.7932C26.3181 44.3485 25.172 44.63 24.0057 44.63ZM23.8859 42.4296H24.0057C24.7438 42.4296 25.4786 42.2652 26.1915 41.9407C26.3666 41.7052 26.5481 41.4797 26.7373 41.2584C26.4444 41.2325 26.1464 41.196 25.8418 41.1509C25.1133 41.4303 24.4843 41.8322 23.967 42.3479L23.8859 42.4296ZM13.4156 44.6183L12.9106 44.5787C8.95959 44.2712 5.86484 40.9418 5.86371 36.9984C5.86371 33.0584 8.95734 29.7291 12.9057 29.4176L13.4107 29.3785L19.828 35.7934C19.9138 35.8794 20.0042 35.9572 20.0944 36.0367L21.1607 36.9984L20.0933 37.9599C20.0031 38.0394 19.9127 38.1191 19.8268 38.2027L13.4156 44.6183ZM12.5938 31.6722C10.0169 32.1101 8.06429 34.3621 8.06429 36.9984C8.06523 39.6362 10.0195 41.8881 12.597 42.3244L17.9214 36.9984L12.5938 31.6722ZM60.5844 44.614L54.1726 38.2049C54.0879 38.1213 53.9975 38.0439 53.9084 37.9644L52.8395 37.0007L53.902 36.0422C53.9943 35.9621 54.0867 35.8806 54.1737 35.7934L60.5898 29.3785L61.0956 29.4176C65.044 29.7303 68.1361 33.0594 68.1361 36.9961C68.1384 40.9393 65.043 44.2669 61.0892 44.5753L60.5844 44.614ZM56.0797 36.9995L61.4043 42.3223C63.983 41.886 65.9382 39.6362 65.9359 36.9961C65.9359 34.3621 63.9837 32.1123 61.4073 31.6722L56.0797 36.9995ZM36.291 38.7185L35.9607 38.3833C35.9193 38.3393 35.8784 38.2931 35.8387 38.2478L35.2843 37.7247V37.2513C35.2843 37.1809 35.2886 37.1095 35.294 37.0401L35.2721 36.281L35.8301 35.7528C35.8714 35.7056 35.9133 35.6583 35.9575 35.6132L36.2878 35.2774L36.7573 35.2828C36.8212 35.284 36.8819 35.287 36.9443 35.292C37.1162 35.2872 37.1786 35.284 37.2423 35.2828L37.7242 35.2774L38.7223 36.2819L38.7073 37.0587L38.7212 37.704L38.3929 38.0306C38.3458 38.0777 38.2952 38.1228 38.2447 38.1679L38.168 38.2453C38.1259 38.2925 38.0854 38.3387 38.0423 38.3827L37.7124 38.7179L37.2423 38.7138C37.179 38.7115 37.1172 38.7095 37.0544 38.7029L36.9984 38.6997C36.884 38.7093 36.8222 38.7113 36.7594 38.7136L36.291 38.7185ZM40.2221 35.663L43.7159 33.0584C44.67 32.3476 45.5005 31.5014 46.1827 30.5452L46.3417 30.3244L46.5846 30.2025C47.6847 29.6487 48.8342 29.3683 49.9967 29.3683H55.4264L51.5866 33.2069C50.7594 34.0335 49.7128 34.6428 48.4774 35.0173L48.2367 35.0899L47.9853 35.0511C46.7263 34.8508 45.8345 34.839 44.5323 35.0303L40.2221 35.663ZM47.2571 32.7426C47.5182 32.7657 47.7879 32.7969 48.0661 32.8361C48.8515 32.567 49.511 32.1683 50.029 31.6495L50.1108 31.5678H49.9958C49.2587 31.5678 48.5206 31.7326 47.8031 32.0571C47.6287 32.2929 47.4463 32.5218 47.2571 32.7426ZM33.7759 35.6618L29.4666 35.029C28.1512 34.8367 27.2786 34.8495 26.0164 35.0498L25.7681 35.0897L25.5258 35.0171C24.2902 34.6438 23.2444 34.0346 22.4154 33.2055L18.573 29.3638H24.0055C25.1646 29.3638 26.3112 29.6444 27.4101 30.1966L27.6534 30.3186L27.8118 30.5399C28.4963 31.4994 29.3277 32.3466 30.2839 33.0584L33.7759 35.6618ZM23.8859 31.5644L23.9713 31.6503C24.492 32.1704 25.1509 32.5689 25.9354 32.8371C26.2136 32.798 26.4821 32.7666 26.7427 32.7435C26.5515 32.5189 26.3677 32.289 26.1917 32.0537C25.4745 31.7303 24.7408 31.5653 24.0059 31.5653H23.886L23.8859 31.5644ZM38.3193 33.8121L38.9607 29.4751C39.1359 28.2932 39.124 27.1028 38.9307 25.9376L38.8856 25.6683L38.9714 25.4094C39.3604 24.241 39.9738 23.2321 40.797 22.4118L44.6302 18.5761V24.0046C44.6302 25.1666 44.3498 26.313 43.7956 27.4121L43.6742 27.6548L43.4528 27.8133C42.4923 28.4999 41.6446 29.333 40.9323 30.2919L38.3193 33.8121ZM41.1459 25.8617C41.1869 26.1567 41.2211 26.4538 41.2447 26.7508C41.4704 26.5569 41.7026 26.3711 41.9409 26.1943C42.2656 25.4765 42.43 24.7416 42.43 24.0056V23.8913L42.3514 23.9697C41.8293 24.4898 41.4244 25.1257 41.1459 25.8617ZM35.6657 33.7858L33.061 30.2825C32.3481 29.3242 31.502 28.4925 30.5438 27.8102L30.3213 27.6505L30.1994 27.4066C29.6481 26.3064 29.3689 25.1621 29.3689 24.0044V18.5727L33.2071 22.4138C34.028 23.2368 34.6387 24.2419 35.0224 25.4039L35.1084 25.6623L35.0633 25.931C34.951 26.6041 34.8963 27.2191 34.8963 27.8102C34.8963 28.3056 34.9402 28.8465 35.0316 29.4659L35.6657 33.7858ZM32.0563 26.1896C32.2915 26.3658 32.5204 26.5485 32.744 26.7386C32.768 26.4508 32.8035 26.1569 32.8488 25.8543C32.5726 25.1226 32.1698 24.4898 31.6505 23.9699L31.5693 23.8881V24.0048C31.5693 24.7374 31.7331 25.4712 32.0563 26.1896ZM48.1916 25.8061L48.2734 24.3753C48.282 24.2523 48.2907 24.1288 48.2907 24.0057V14.9331L48.6753 14.6043C50.0721 13.4053 51.8285 12.7448 53.6238 12.7448C55.6629 12.7448 57.5796 13.5389 59.0215 14.9829C61.8042 17.7673 61.9695 22.309 59.3975 25.3201L59.0666 25.7065L49.9883 25.7102C49.8701 25.7102 49.7541 25.7189 49.638 25.7273L48.1916 25.8061ZM50.4909 15.9694V23.5072L58.0244 23.504C59.5371 21.3728 59.3266 18.3998 57.4646 16.5362C55.6393 14.7112 52.6159 14.4329 50.4909 15.9694ZM25.8052 25.8L24.3774 25.7232C24.2554 25.7145 24.1318 25.7053 24.0078 25.7053H14.9327L14.6038 25.319C12.0312 22.3069 12.1979 17.7652 14.9821 14.9803C16.4245 13.5391 18.3401 12.7459 20.377 12.7459C22.1728 12.7459 23.9293 13.4062 25.3255 14.6043L25.7095 14.9331V24.0046C25.7095 24.1243 25.7182 24.2425 25.7274 24.3613L25.8052 25.8ZM15.9753 23.505H23.5093V15.9721C21.3858 14.4373 18.3615 14.7133 16.5378 16.5373C14.6743 18.3998 14.4637 21.3728 15.9753 23.505ZM36.9963 21.1541L36.0289 20.0846C35.9532 19.9976 35.8773 19.9094 35.7936 19.8262L29.3839 13.4151L29.4226 12.9111C29.7272 8.95816 33.0555 5.86112 36.9995 5.86112C40.9419 5.86112 44.2704 8.95553 44.5776 12.9077L44.6163 13.4117L38.2062 19.8271C38.1229 19.9104 38.0476 19.9964 37.973 20.0814L36.9963 21.1541ZM31.6754 12.5941L37.0005 17.9195L42.3234 12.5919C41.8883 10.0142 39.6375 8.06035 36.9993 8.06035C34.3604 8.06054 32.1091 10.0164 31.6754 12.5941Z" fill="#E85F4C"/>
<path d="M87.0312 29.5781C87.0312 28.25 87.0156 27.0938 86.9844 26.1094C86.9531 25.1094 86.9062 24.25 86.8438 23.5312C86.7812 22.7969 86.7031 22.1875 86.6094 21.7031C86.5312 21.2188 86.4453 20.8125 86.3516 20.4844V20.3906C86.6641 20.4062 86.9922 20.4141 87.3359 20.4141C87.6328 20.4297 87.9609 20.4375 88.3203 20.4375C88.6953 20.4375 89.0781 20.4375 89.4688 20.4375C90.0312 20.4375 90.7891 20.3828 91.7422 20.2734C92.7109 20.1641 93.9531 20.1094 95.4688 20.1094C96.875 20.1094 98.1719 20.2969 99.3594 20.6719C100.547 21.0312 101.57 21.5547 102.43 22.2422C103.305 22.9297 103.984 23.7812 104.469 24.7969C104.969 25.7969 105.219 26.9375 105.219 28.2188C105.219 29.2969 105.07 30.2656 104.773 31.125C104.477 31.9688 104.055 32.7109 103.508 33.3516C102.977 33.9766 102.328 34.5078 101.562 34.9453C100.812 35.3672 99.9844 35.7031 99.0781 35.9531C100.406 36.1562 101.617 36.5 102.711 36.9844C103.805 37.4531 104.742 38.0469 105.523 38.7656C106.32 39.4844 106.93 40.3281 107.352 41.2969C107.789 42.25 108.008 43.3125 108.008 44.4844C108.008 47.7812 106.922 50.2578 104.75 51.9141C102.578 53.5547 99.3281 54.375 95 54.375C94.5312 54.375 93.9844 54.3516 93.3594 54.3047C92.7344 54.2734 92.0938 54.2344 91.4375 54.1875C90.7969 54.1406 90.1641 54.0938 89.5391 54.0469C88.9141 54.0156 88.3672 54 87.8984 54H86.3516V53.9062C86.4453 53.5781 86.5312 53.1719 86.6094 52.6875C86.7031 52.2031 86.7812 51.6016 86.8438 50.8828C86.9062 50.1641 86.9531 49.3125 86.9844 48.3281C87.0156 47.3281 87.0312 46.1641 87.0312 44.8359V29.5781ZM95.6328 37.3828C94.5703 37.3828 93.6797 37.4219 92.9609 37.5C92.2422 37.5781 91.6875 37.6562 91.2969 37.7344V44.8359C91.2969 46.6641 91.3281 48.1719 91.3906 49.3594C91.4531 50.5469 91.5391 51.5156 91.6484 52.2656C92.2422 52.3438 92.8359 52.4141 93.4297 52.4766C94.0234 52.5391 94.5 52.5703 94.8594 52.5703C97.7812 52.5703 99.9141 51.9219 101.258 50.625C102.617 49.3125 103.297 47.3047 103.297 44.6016C103.297 43.5391 103.133 42.5703 102.805 41.6953C102.492 40.8047 102.016 40.0391 101.375 39.3984C100.75 38.7578 99.9531 38.2656 98.9844 37.9219C98.0312 37.5625 96.9141 37.3828 95.6328 37.3828ZM91.2969 35.625C91.7344 35.6719 92.125 35.7031 92.4688 35.7188C92.8125 35.7188 93.1797 35.7188 93.5703 35.7188C94.6328 35.7188 95.6016 35.5703 96.4766 35.2734C97.3516 34.9609 98.0938 34.5 98.7031 33.8906C99.3281 33.2812 99.8125 32.5234 100.156 31.6172C100.5 30.6953 100.672 29.625 100.672 28.4062C100.672 27.3906 100.547 26.4688 100.297 25.6406C100.047 24.8125 99.6719 24.1094 99.1719 23.5312C98.6875 22.9375 98.0859 22.4844 97.3672 22.1719C96.6484 21.8594 95.8281 21.7031 94.9062 21.7031C94.3125 21.7031 93.7891 21.7266 93.3359 21.7734C92.8984 21.8203 92.5234 21.875 92.2109 21.9375C91.8516 22 91.5469 22.0781 91.2969 22.1719V35.625ZM133.433 19.8281C136.042 19.8281 138.448 20.2578 140.652 21.1172C142.87 21.9609 144.784 23.1562 146.394 24.7031C148.003 26.2344 149.261 28.0781 150.167 30.2344C151.073 32.3906 151.527 34.7734 151.527 37.3828C151.527 38.8672 151.355 40.3281 151.011 41.7656C150.667 43.2031 150.159 44.5625 149.487 45.8438C148.831 47.125 148.019 48.3125 147.05 49.4062C146.081 50.4844 144.972 51.4219 143.722 52.2188C142.487 53 141.12 53.6094 139.62 54.0469C138.12 54.5 136.503 54.7266 134.769 54.7266C132.159 54.7266 129.745 54.3125 127.527 53.4844C125.323 52.6406 123.417 51.4531 121.808 49.9219C120.198 48.3906 118.941 46.5547 118.034 44.4141C117.128 42.2578 116.675 39.8672 116.675 37.2422C116.675 35.7578 116.847 34.2969 117.191 32.8594C117.534 31.4219 118.034 30.0547 118.691 28.7578C119.362 27.4609 120.175 26.2734 121.128 25.1953C122.097 24.1016 123.198 23.1562 124.433 22.3594C125.683 21.5625 127.058 20.9453 128.558 20.5078C130.073 20.0547 131.698 19.8281 133.433 19.8281ZM134.769 52.6172C136.503 52.6172 138.089 52.3047 139.527 51.6797C140.964 51.0547 142.198 50.1484 143.23 48.9609C144.277 47.7734 145.089 46.3281 145.667 44.625C146.245 42.9062 146.534 40.9609 146.534 38.7891C146.534 36.3828 146.253 34.1562 145.691 32.1094C145.144 30.0469 144.323 28.2656 143.23 26.7656C142.136 25.25 140.769 24.0703 139.128 23.2266C137.503 22.3672 135.605 21.9375 133.433 21.9375C131.698 21.9375 130.112 22.25 128.675 22.875C127.237 23.4844 125.995 24.375 124.948 25.5469C123.917 26.7188 123.112 28.1562 122.534 29.8594C121.956 31.5625 121.667 33.5 121.667 35.6719C121.667 38.0625 121.941 40.2969 122.487 42.375C123.034 44.4375 123.855 46.2266 124.948 47.7422C126.042 49.2578 127.409 50.4531 129.05 51.3281C130.691 52.1875 132.597 52.6172 134.769 52.6172ZM176.952 19.8281C179.561 19.8281 181.967 20.2578 184.17 21.1172C186.389 21.9609 188.303 23.1562 189.912 24.7031C191.522 26.2344 192.78 28.0781 193.686 30.2344C194.592 32.3906 195.045 34.7734 195.045 37.3828C195.045 38.8672 194.873 40.3281 194.53 41.7656C194.186 43.2031 193.678 44.5625 193.006 45.8438C192.35 47.125 191.537 48.3125 190.569 49.4062C189.6 50.4844 188.491 51.4219 187.241 52.2188C186.006 53 184.639 53.6094 183.139 54.0469C181.639 54.5 180.022 54.7266 178.287 54.7266C175.678 54.7266 173.264 54.3125 171.045 53.4844C168.842 52.6406 166.936 51.4531 165.327 49.9219C163.717 48.3906 162.459 46.5547 161.553 44.4141C160.647 42.2578 160.194 39.8672 160.194 37.2422C160.194 35.7578 160.366 34.2969 160.709 32.8594C161.053 31.4219 161.553 30.0547 162.209 28.7578C162.881 27.4609 163.694 26.2734 164.647 25.1953C165.616 24.1016 166.717 23.1562 167.952 22.3594C169.202 21.5625 170.577 20.9453 172.077 20.5078C173.592 20.0547 175.217 19.8281 176.952 19.8281ZM178.287 52.6172C180.022 52.6172 181.608 52.3047 183.045 51.6797C184.483 51.0547 185.717 50.1484 186.748 48.9609C187.795 47.7734 188.608 46.3281 189.186 44.625C189.764 42.9062 190.053 40.9609 190.053 38.7891C190.053 36.3828 189.772 34.1562 189.209 32.1094C188.662 30.0469 187.842 28.2656 186.748 26.7656C185.655 25.25 184.287 24.0703 182.647 23.2266C181.022 22.3672 179.123 21.9375 176.952 21.9375C175.217 21.9375 173.631 22.25 172.194 22.875C170.756 23.4844 169.514 24.375 168.467 25.5469C167.436 26.7188 166.631 28.1562 166.053 29.8594C165.475 31.5625 165.186 33.5 165.186 35.6719C165.186 38.0625 165.459 40.2969 166.006 42.375C166.553 44.4375 167.373 46.2266 168.467 47.7422C169.561 49.2578 170.928 50.4531 172.569 51.3281C174.209 52.1875 176.116 52.6172 178.287 52.6172ZM205.142 53.9062C205.236 53.5781 205.322 53.1719 205.4 52.6875C205.494 52.2031 205.572 51.6016 205.634 50.8828C205.697 50.1641 205.744 49.3125 205.775 48.3281C205.806 47.3281 205.822 46.1641 205.822 44.8359V29.5781C205.822 28.25 205.806 27.0938 205.775 26.1094C205.744 25.1094 205.697 24.25 205.634 23.5312C205.572 22.7969 205.494 22.1875 205.4 21.7031C205.322 21.2188 205.236 20.8125 205.142 20.4844V20.3906H210.767V20.4844C210.673 20.8125 210.58 21.2188 210.486 21.7031C210.408 22.1875 210.338 22.7969 210.275 23.5312C210.228 24.25 210.181 25.1094 210.134 26.1094C210.103 27.0938 210.088 28.25 210.088 29.5781V34.8047L223.775 23.625C225.306 22.375 226.072 21.2969 226.072 20.3906H232.658V20.4844C231.736 20.7031 230.798 21.125 229.845 21.75C228.908 22.3594 227.908 23.1094 226.845 24L214.752 34.125L229.306 50.1094C229.916 50.7344 230.431 51.2578 230.853 51.6797C231.291 52.0859 231.673 52.4297 232.002 52.7109C232.33 52.9766 232.627 53.2031 232.892 53.3906C233.173 53.5625 233.463 53.7344 233.759 53.9062V54H226.892C226.83 53.8594 226.72 53.6797 226.564 53.4609C226.423 53.2422 226.252 53.0156 226.048 52.7812C225.861 52.5469 225.65 52.3047 225.416 52.0547C225.197 51.8047 224.986 51.5703 224.783 51.3516L210.088 35.2266V44.8359C210.088 46.1641 210.103 47.3281 210.134 48.3281C210.181 49.3125 210.228 50.1641 210.275 50.8828C210.338 51.6016 210.408 52.2031 210.486 52.6875C210.58 53.1719 210.673 53.5781 210.767 53.9062V54H205.142V53.9062ZM254.661 37.875V44.8359C254.661 46.1641 254.677 47.3281 254.708 48.3281C254.739 49.3125 254.786 50.1641 254.848 50.8828C254.911 51.6016 254.981 52.2031 255.059 52.6875C255.153 53.1719 255.247 53.5781 255.341 53.9062V54H249.716V53.9062C249.809 53.5781 249.895 53.1719 249.973 52.6875C250.067 52.2031 250.137 51.6016 250.184 50.8828C250.247 50.1641 250.294 49.3125 250.325 48.3281C250.372 47.3281 250.395 46.1641 250.395 44.8359V38.3438L239.919 24.0938C239.559 23.6094 239.2 23.1641 238.841 22.7578C238.497 22.3516 238.169 22 237.856 21.7031C237.544 21.3906 237.262 21.1328 237.012 20.9297C236.762 20.7266 236.567 20.5781 236.427 20.4844V20.3906H243.528C243.528 20.75 243.677 21.3438 243.973 22.1719C244.286 22.9844 244.841 23.9453 245.637 25.0547L253.325 35.5781L260.848 24.5859C261.114 24.1953 261.38 23.7969 261.645 23.3906C261.911 22.9844 262.153 22.5938 262.372 22.2188C262.591 21.8438 262.762 21.5 262.887 21.1875C263.028 20.875 263.098 20.6094 263.098 20.3906H267.669V20.4844C267.325 20.7812 266.864 21.2266 266.286 21.8203C265.708 22.3984 265.083 23.1719 264.411 24.1406L254.661 37.875Z" fill="black"/>
</svg>
